STARTFONT 2.1
FONT -Adobe-ITC Lubalin Graph-Demi-O-Normal--24-180-100-100-P-144-ISO8859-15
SIZE 18 100 100
FONTBOUNDINGBOX 31 29 -2 -5

STARTPROPERTIES 30
FOUNDRY "Adobe"
FAMILY_NAME "ITC Lubalin Graph"
WEIGHT_NAME "Demi"
SLANT "O"
SETWIDTH_NAME "Normal"
ADD_STYLE_NAME ""
PIXEL_SIZE 24
POINT_SIZE 180
RESOLUTION_X 100
RESOLUTION_Y 100
SPACING "P"
AVERAGE_WIDTH 144
CHARSET_REGISTRY "ISO8859"
CHARSET_ENCODING "15"
CAP_HEIGHT 18
X_HEIGHT 14
FACE_NAME "ITC LubalinGraph Demi Oblique"
COPYRIGHT "Copyright (c) 1984, 1987 Adobe Systems Incorporated. All Rights Reserved. Copyright (c) 1988, 1991 Digital Equipment Corporation. All Rights Reserved."
NOTICE "ITC Lubalin Graph is a registered trademark of International Typeface Corporation."
_DEC_DEVICE_FONTNAMES "PS=LubalinGraph-DemiOblique"
_DEC_PRODUCTINFO "DECwindows Fonts V2.2, 07-Nov-1991"
RELATIVE_SETWIDTH 50
RELATIVE_WEIGHT 60
CHARSET_COLLECTIONS "ASCII ISO8859-1 ADOBE-STANDARD"
FULL_NAME "ITC Lubalin Graph Demi Oblique"
WEIGHT 10
QUAD_WIDTH 16
DEFAULT_CHAR 32
FONT_DESCENT 5
FONT_ASCENT 21
ENDPROPERTIES

CHARS 191

STARTCHAR space
ENCODING 32
SWIDTH 300 0
DWIDTH 7 0
BBX 1 1 0 0
BITMAP
00
ENDCHAR

STARTCHAR exclam
ENCODING 33
SWIDTH 200 0
DWIDTH 6 0
BBX 6 18 0 0
BITMAP
1C
1C
1C
1C
38
38
38
38
38
70
70
70
70
00
00
E0
E0
E0
ENDCHAR

STARTCHAR quotedbl
ENCODING 34
SWIDTH 400 0
DWIDTH 10 0
BBX 7 6 3 12
BITMAP
66
66
66
CC
CC
CC
ENDCHAR

STARTCHAR numbersign
ENCODING 35
SWIDTH 660 0
DWIDTH 17 0
BBX 14 18 2 0
BITMAP
0198
0198
0198
0330
0330
3FFC
3FFC
0660
0CC0
0CC0
FFF0
FFF0
1980
1980
3300
3300
6600
6600
ENDCHAR

STARTCHAR dollar
ENCODING 36
SWIDTH 580 0
DWIDTH 14 0
BBX 13 22 0 -3
BITMAP
0380
0380
0318
0FF8
1FF0
3C70
3830
3800
3C00
1F00
0FC0
07E0
01F0
7070
7070
78F0
FFE0
FFC0
DF00
0C00
1C00
1C00
ENDCHAR

STARTCHAR percent
ENCODING 37
SWIDTH 860 0
DWIDTH 21 0
BBX 17 18 1 0
BITMAP
1C0600
7E0600
670E00
C31C00
C33800
C33000
E66000
7EE000
38C000
018E00
03BF00
033380
066180
0E6180
1C6180
387300
303F00
301C00
ENDCHAR

STARTCHAR ampersand
ENCODING 38
SWIDTH 720 0
DWIDTH 18 0
BBX 17 18 1 0
BITMAP
03C000
0FE000
0FF000
1C7000
1C7000
1CF000
1FE000
0FC780
0F0F80
3F9F80
7FFC00
71F800
E0F000
E0F000
E3F800
FFBC00
7F1E00
3E0E00
ENDCHAR

STARTCHAR quoteright
ENCODING 39
SWIDTH 200 0
DWIDTH 5 0
BBX 4 6 1 12
BITMAP
70
70
70
30
60
C0
ENDCHAR

STARTCHAR parenleft
ENCODING 40
SWIDTH 360 0
DWIDTH 9 0
BBX 9 21 1 -3
BITMAP
0180
0380
0700
0E00
1C00
3800
3800
7000
7000
E000
E000
E000
E000
E000
E000
E000
6000
7000
3000
3800
1800
ENDCHAR

STARTCHAR parenright
ENCODING 41
SWIDTH 360 0
DWIDTH 9 0
BBX 9 21 -1 -3
BITMAP
0C00
0E00
0600
0700
0300
0380
0380
0380
0380
0380
0380
0380
0300
0700
0700
0E00
0C00
1C00
3800
6000
C000
ENDCHAR

STARTCHAR asterisk
ENCODING 42
SWIDTH 360 0
DWIDTH 10 0
BBX 10 8 1 10
BITMAP
1B00
1B00
0E00
7FC0
FF80
1C00
3600
3600
ENDCHAR

STARTCHAR plus
ENCODING 43
SWIDTH 660 0
DWIDTH 16 0
BBX 12 12 2 2
BITMAP
0300
0300
0300
0200
0600
FFF0
FFF0
0600
0400
0C00
0C00
0C00
ENDCHAR

STARTCHAR comma
ENCODING 44
SWIDTH 300 0
DWIDTH 7 0
BBX 4 6 0 -3
BITMAP
70
70
70
30
60
C0
ENDCHAR

STARTCHAR minus
ENCODING 45
SWIDTH 660 0
DWIDTH 16 0
BBX 12 2 2 7
BITMAP
FFF0
FFF0
ENDCHAR

STARTCHAR period
ENCODING 46
SWIDTH 300 0
DWIDTH 7 0
BBX 3 3 1 0
BITMAP
E0
E0
E0
ENDCHAR

STARTCHAR slash
ENCODING 47
SWIDTH 580 0
DWIDTH 15 0
BBX 15 21 0 -3
BITMAP
0006
000C
000C
0018
0030
0030
0060
00C0
00C0
0180
0300
0300
0600
0C00
0C00
1800
3000
3000
6000
C000
C000
ENDCHAR

STARTCHAR zero
ENCODING 48
SWIDTH 580 0
DWIDTH 14 0
BBX 13 18 0 0
BITMAP
0780
1FE0
3FF0
3C70
7038
7038
7038
7038
6038
E030
E070
E070
E070
F070
71E0
7FE0
3FC0
0F00
ENDCHAR

STARTCHAR one
ENCODING 49
SWIDTH 580 0
DWIDTH 14 0
BBX 9 18 2 0
BITMAP
1F80
1F80
1F00
0700
0700
0700
0E00
0E00
0E00
0E00
0E00
1C00
1C00
1C00
1C00
FF80
FF80
FF80
ENDCHAR

STARTCHAR two
ENCODING 50
SWIDTH 580 0
DWIDTH 14 0
BBX 13 18 0 0
BITMAP
03E0
0FF0
1FF8
1C78
3838
3838
0070
00F0
01E0
03C0
0780
0F00
1E00
3C30
7870
FFF0
FFE0
FFE0
ENDCHAR

STARTCHAR three
ENCODING 51
SWIDTH 580 0
DWIDTH 14 0
BBX 12 18 0 0
BITMAP
0780
1FE0
1FF0
3C70
3870
0070
00E0
07E0
0780
07E0
00F0
0070
0070
E070
E0E0
FFE0
7FC0
1F00
ENDCHAR

STARTCHAR four
ENCODING 52
SWIDTH 580 0
DWIDTH 14 0
BBX 12 18 0 0
BITMAP
0070
00F0
01F0
03F0
07E0
0EE0
1CE0
38E0
70C0
E0C0
E1C0
FFF0
FFF0
0380
0380
0FC0
0FC0
0FC0
ENDCHAR

STARTCHAR five
ENCODING 53
SWIDTH 580 0
DWIDTH 14 0
BBX 12 18 0 0
BITMAP
1FF0
1FF0
1FF0
3800
3800
3800
3BC0
7FE0
7FF0
70F0
0070
0070
0070
E070
E0E0
FFE0
7FC0
3F00
ENDCHAR

STARTCHAR six
ENCODING 54
SWIDTH 580 0
DWIDTH 14 0
BBX 12 18 0 0
BITMAP
00E0
01E0
03C0
0780
0F00
1E00
1E00
3FC0
7FE0
78F0
F070
E070
E070
E070
F0E0
7FE0
7FC0
1F00
ENDCHAR

STARTCHAR seven
ENCODING 55
SWIDTH 580 0
DWIDTH 14 0
BBX 12 18 1 0
BITMAP
FFF0
FFF0
FFF0
E070
E0E0
E1E0
01C0
0380
0380
0700
0F00
0E00
1E00
3C00
3800
7800
F000
F000
ENDCHAR

STARTCHAR eight
ENCODING 56
SWIDTH 580 0
DWIDTH 14 0
BBX 12 18 0 0
BITMAP
0380
0FE0
1FE0
1CF0
3870
3870
3CE0
1FE0
1FC0
3FE0
70E0
E070
E070
E070
F0E0
7FE0
3FC0
1F00
ENDCHAR

STARTCHAR nine
ENCODING 57
SWIDTH 580 0
DWIDTH 14 0
BBX 12 18 1 0
BITMAP
0F00
3FC0
7FE0
70F0
E070
E070
E070
E0F0
F1F0
7FE0
1FC0
0380
0780
0F00
1E00
3C00
7800
7000
ENDCHAR

STARTCHAR colon
ENCODING 58
SWIDTH 300 0
DWIDTH 7 0
BBX 5 13 1 0
BITMAP
38
38
38
00
00
00
00
00
00
00
E0
E0
E0
ENDCHAR

STARTCHAR semicolon
ENCODING 59
SWIDTH 300 0
DWIDTH 6 0
BBX 6 16 -1 -3
BITMAP
1C
1C
1C
00
00
00
00
00
00
00
70
70
70
30
60
C0
ENDCHAR

STARTCHAR less
ENCODING 60
SWIDTH 660 0
DWIDTH 17 0
BBX 15 15 1 0
BITMAP
0006
001E
007C
01F0
07C0
1F00
7C00
F000
F800
3E00
0F80
03E0
00F8
003C
000C
ENDCHAR

STARTCHAR equal
ENCODING 61
SWIDTH 660 0
DWIDTH 17 0
BBX 14 6 1 5
BITMAP
7FFC
7FFC
0000
0000
FFF8
FFF8
ENDCHAR

STARTCHAR greater
ENCODING 62
SWIDTH 660 0
DWIDTH 17 0
BBX 16 15 0 0
BITMAP
2000
3800
3E00
0F80
03E0
00F8
003E
000F
003E
00F8
03E0
0F80
3E00
F800
E000
ENDCHAR

STARTCHAR question
ENCODING 63
SWIDTH 540 0
DWIDTH 13 0
BBX 12 18 2 0
BITMAP
0F80
3FE0
7FE0
70F0
E070
E060
00E0
03C0
0780
0E00
1C00
1C00
1C00
0000
0000
3800
3800
3800
ENDCHAR

STARTCHAR at
ENCODING 64
SWIDTH 880 0
DWIDTH 21 0
BBX 19 18 1 0
BITMAP
00FC00
03FF00
0F0380
1C00C0
386CC0
31FC60
639860
631860
C61860
C610C0
C630C0
C63380
C7FF00
639C00
600000
381C00
1FF800
07E000
ENDCHAR

STARTCHAR A
ENCODING 65
SWIDTH 780 0
DWIDTH 17 0
BBX 18 18 -1 0
BITMAP
00F800
00F800
00F800
003C00
007C00
00FC00
00EC00
01CE00
03CE00
038E00
07FE00
0FFF00
0FFF00
1E0700
3C0700
FE1FC0
FE1FC0
FE1FC0
ENDCHAR

STARTCHAR B
ENCODING 66
SWIDTH 600 0
DWIDTH 15 0
BBX 14 18 0 0
BITMAP
3FF0
3FF8
3FFC
0E3C
0E1C
0E1C
1C38
1FF8
1FF0
1FF8
1C3C
381C
381C
381C
3838
FFF8
FFF0
FFE0
ENDCHAR

STARTCHAR C
ENCODING 67
SWIDTH 760 0
DWIDTH 19 0
BBX 19 18 1 0
BITMAP
00FCE0
07FEE0
0FFFE0
3F07E0
3C01C0
7801C0
700000
F00000
E00000
E00000
E00000
E00000
F00380
700780
7C1F00
3FFE00
1FFC00
07F000
ENDCHAR

STARTCHAR D
ENCODING 68
SWIDTH 740 0
DWIDTH 18 0
BBX 18 18 0 0
BITMAP
3FF000
3FFE00
3FFF00
0E0F80
0E0380
1C0380
1C01C0
1C01C0
1C01C0
1C01C0
1C0380
380380
380700
380F00
383E00
FFFC00
FFF000
FFC000
ENDCHAR

STARTCHAR E
ENCODING 69
SWIDTH 580 0
DWIDTH 15 0
BBX 15 18 0 0
BITMAP
3FFE
3FFE
3FFC
0E1C
0E1C
0E00
1C00
1FE0
1FE0
1FE0
1C00
3C00
3838
3838
3878
FFF0
FFF0
FFF0
ENDCHAR

STARTCHAR F
ENCODING 70
SWIDTH 580 0
DWIDTH 14 0
BBX 15 18 0 0
BITMAP
3FFE
3FFE
3FFC
0E1C
0E1C
0E00
1C00
1FE0
1FE0
1FE0
1C00
3C00
3800
3800
3800
FC00
FC00
FC00
ENDCHAR

STARTCHAR G
ENCODING 71
SWIDTH 780 0
DWIDTH 19 0
BBX 19 18 1 0
BITMAP
01F8E0
07FEE0
1FFFE0
3F07C0
3C01C0
7801C0
700000
F00000
E00000
E0FF80
E0FF80
E0FF80
F00380
700700
7C1F00
3FFF00
1FFF00
07F700
ENDCHAR

STARTCHAR H
ENCODING 72
SWIDTH 740 0
DWIDTH 19 0
BBX 19 18 0 0
BITMAP
3F87E0
3F87E0
3F87E0
0E0380
0E0380
0E0380
1C0700
1FFF00
1FFF00
1FFF00
1C0700
1C0700
380E00
380E00
380E00
FE3F80
FE3F80
FE3F80
ENDCHAR

STARTCHAR I
ENCODING 73
SWIDTH 340 0
DWIDTH 8 0
BBX 9 18 0 0
BITMAP
1F80
1F80
1F80
0E00
0E00
0E00
1C00
1C00
1C00
1C00
1C00
3800
3800
3800
3800
FC00
FC00
FC00
ENDCHAR

STARTCHAR J
ENCODING 74
SWIDTH 540 0
DWIDTH 13 0
BBX 14 18 0 0
BITMAP
00FC
00FC
00FC
0070
0070
0070
00E0
00E0
00E0
00E0
00E0
01C0
01C0
E1C0
F3C0
FF80
7F00
1C00
ENDCHAR

STARTCHAR K
ENCODING 75
SWIDTH 720 0
DWIDTH 17 0
BBX 18 18 0 0
BITMAP
1FCFC0
1FCFC0
1FCFC0
0F0700
0E1E00
0E3C00
0E7800
1EF000
1FE000
1FC000
1DE000
1CF000
387800
383C00
383C00
FE7F00
FE7F00
FE7F00
ENDCHAR

STARTCHAR L
ENCODING 76
SWIDTH 560 0
DWIDTH 15 0
BBX 13 18 1 0
BITMAP
1F80
1F80
1F80
0E00
0E00
0E00
1C00
1C00
1C00
1C00
1C00
3800
3838
3838
3838
FFF0
FFF0
FFF0
ENDCHAR

STARTCHAR M
ENCODING 77
SWIDTH 960 0
DWIDTH 24 0
BBX 25 18 0 0
BITMAP
1FC03F80
1FC03F80
1FC07F80
07C07E00
07C0FC00
0FE1DC00
0EE1DC00
0EE1DC00
1CE3B800
1CE73800
1CE73800
1C773800
1C7E3800
387E7000
38787000
FE39FC00
FE31FC00
FE31FC00
ENDCHAR

STARTCHAR N
ENCODING 78
SWIDTH 800 0
DWIDTH 19 0
BBX 21 18 0 0
BITMAP
1F03F8
1F83F8
1F83F8
07C0E0
07C1C0
06E1C0
06E1C0
0EF180
0E7380
0E7B80
0C3B80
1C3B80
1C1F00
1C1F00
380F00
FE0F00
FE0700
FE0700
ENDCHAR

STARTCHAR O
ENCODING 79
SWIDTH 780 0
DWIDTH 20 0
BBX 19 18 1 0
BITMAP
00FC00
07FF00
0FFF80
3F07C0
3C01C0
7801E0
7000E0
F000E0
E000E0
E000E0
E001C0
E001C0
F003C0
700780
7C1F00
3FFE00
1FFC00
07F000
ENDCHAR

STARTCHAR P
ENCODING 80
SWIDTH 600 0
DWIDTH 15 0
BBX 15 18 0 0
BITMAP
3FF0
3FFC
3FFC
0E1E
0E0E
0E0E
1C0E
1C1C
1C3C
1FF8
1FF0
3FC0
3800
3800
3800
FE00
FE00
FE00
ENDCHAR

STARTCHAR Q
ENCODING 81
SWIDTH 860 0
DWIDTH 21 0
BBX 19 18 1 0
BITMAP
00FC00
07FF00
0FFF80
3F07C0
3C01C0
7801E0
7000E0
F000E0
E000E0
FF81E0
FFE1C0
FFF3C0
E0FFC0
703F80
7C1F60
3FFFE0
1FFBE0
07F1E0
ENDCHAR

STARTCHAR R
ENCODING 82
SWIDTH 640 0
DWIDTH 16 0
BBX 15 18 1 0
BITMAP
3FF0
3FFC
3FFC
0E1E
0E0E
0E0E
1C0E
1C1C
1C3C
1FF8
1FF0
3BC0
39E0
38F0
3870
FE7C
FE3C
FE1C
ENDCHAR

STARTCHAR S
ENCODING 83
SWIDTH 520 0
DWIDTH 13 0
BBX 14 18 0 0
BITMAP
03EC
0FFC
1E78
3C38
3838
3C00
3E00
1F00
0FC0
07E0
01F0
00F0
7070
7070
70F0
F9E0
FFC0
DF00
ENDCHAR

STARTCHAR T
ENCODING 84
SWIDTH 600 0
DWIDTH 16 0
BBX 16 18 2 0
BITMAP
FFFF
FFFF
FFFF
C386
C386
C386
0700
0700
0700
0700
0700
0E00
0E00
0E00
0E00
7FC0
7FC0
7FC0
ENDCHAR

STARTCHAR U
ENCODING 85
SWIDTH 700 0
DWIDTH 18 0
BBX 17 18 2 0
BITMAP
FE3F80
FE3F80
FE3F80
380E00
380E00
701C00
701C00
701C00
701C00
701C00
E03800
E03800
E03800
E07000
F0E000
FFE000
7FC000
1F0000
ENDCHAR

STARTCHAR V
ENCODING 86
SWIDTH 740 0
DWIDTH 16 0
BBX 17 18 1 0
BITMAP
FE3F80
FE3F80
FE3F80
381E00
383C00
383800
3C7800
1C7000
1CF000
1CE000
1DE000
1DC000
1FC000
0F8000
0F0000
0F0000
0E0000
0E0000
ENDCHAR

STARTCHAR W
ENCODING 87
SWIDTH 1020 0
DWIDTH 23 0
BBX 23 18 1 0
BITMAP
FE38FE
FE38FE
FE38FE
383838
387870
387870
38F8E0
38D8E0
39D9C0
39D9C0
3B9B80
3B9B80
3F1F00
1F1F00
1E1E00
1E1E00
1C1C00
1C1C00
ENDCHAR

STARTCHAR X
ENCODING 88
SWIDTH 740 0
DWIDTH 19 0
BBX 19 18 1 0
BITMAP
7F8FE0
7F8FE0
7F8FE0
1E0780
0F0F00
079E00
03FC00
01F800
00F000
01E000
03F000
07F800
0F3C00
1E1E00
3C0F00
FE3FC0
FE3FC0
FE3FC0
ENDCHAR

STARTCHAR Y
ENCODING 89
SWIDTH 680 0
DWIDTH 15 0
BBX 15 18 2 0
BITMAP
FC7E
FC7E
FC7E
7838
3870
38E0
1DE0
1DC0
1F80
0F00
0F00
0E00
0E00
1C00
1C00
FF00
FF00
FF00
ENDCHAR

STARTCHAR Z
ENCODING 90
SWIDTH 560 0
DWIDTH 14 0
BBX 15 18 0 0
BITMAP
1FFE
1FFE
1FFE
1C1E
383C
3878
00F0
01E0
03C0
0780
0F00
1E00
3C38
7838
F070
FFF0
FFF0
FFF0
ENDCHAR

STARTCHAR bracketleft
ENCODING 91
SWIDTH 380 0
DWIDTH 10 0
BBX 11 21 0 -3
BITMAP
0FE0
0FE0
0FC0
0E00
0C00
1C00
1C00
1C00
1C00
1800
3800
3800
3800
3800
3000
7000
7000
7000
7F00
FF00
FE00
ENDCHAR

STARTCHAR backslash
ENCODING 92
SWIDTH 620 0
DWIDTH 15 0
BBX 6 18 5 0
BITMAP
C0
C0
C0
60
60
60
60
30
30
30
30
18
18
18
18
0C
0C
0C
ENDCHAR

STARTCHAR bracketright
ENCODING 93
SWIDTH 380 0
DWIDTH 10 0
BBX 11 21 -1 -3
BITMAP
07E0
0FE0
0FE0
00E0
01C0
01C0
01C0
01C0
0180
0380
0380
0380
0380
0300
0700
0700
0700
0700
7E00
FE00
FE00
ENDCHAR

STARTCHAR asciicircum
ENCODING 94
SWIDTH 660 0
DWIDTH 17 0
BBX 15 14 1 4
BITMAP
00C0
00E0
01E0
01E0
0330
0630
0E30
0C18
1818
381C
700C
600C
E00E
C006
ENDCHAR

STARTCHAR underscore
ENCODING 95
SWIDTH 500 0
DWIDTH 13 0
BBX 13 2 0 -3
BITMAP
FFF8
FFF8
ENDCHAR

STARTCHAR quoteleft
ENCODING 96
SWIDTH 200 0
DWIDTH 5 0
BBX 4 6 2 12
BITMAP
30
70
C0
E0
E0
E0
ENDCHAR

STARTCHAR a
ENCODING 97
SWIDTH 660 0
DWIDTH 17 0
BBX 17 14 1 0
BITMAP
07E780
1FFF80
3FFF80
7C3C00
701C00
F01C00
E01C00
E03800
E03800
E03800
F0F800
7FFE00
7FFE00
1F9E00
ENDCHAR

STARTCHAR b
ENCODING 98
SWIDTH 660 0
DWIDTH 17 0
BBX 17 18 0 0
BITMAP
1F0000
1F0000
1F0000
060000
0EFC00
0FFF00
0FFF00
0F8780
0E0380
1E0380
1C0380
1C0380
1C0780
1C0700
3E1E00
FFFE00
FFFC00
F3F000
ENDCHAR

STARTCHAR c
ENCODING 99
SWIDTH 580 0
DWIDTH 14 0
BBX 14 14 1 0
BITMAP
07DC
1FFC
3FFC
7C3C
701C
F000
E000
E000
E000
E038
F0F0
7FF0
7FE0
1F80
ENDCHAR

STARTCHAR d
ENCODING 100
SWIDTH 660 0
DWIDTH 17 0
BBX 16 18 1 0
BITMAP
001F
001F
001F
0007
07E6
1FFE
3FFE
7C3E
701C
F01C
E01C
E01C
E038
E038
F0F8
7FFE
7FFE
1F3E
ENDCHAR

STARTCHAR e
ENCODING 101
SWIDTH 580 0
DWIDTH 15 0
BBX 14 14 1 0
BITMAP
07E0
1FF8
3FF8
7C3C
701C
FFFC
FFFC
FFFC
E000
E038
F0F0
7FF0
7FE0
1F80
ENDCHAR

STARTCHAR f
ENCODING 102
SWIDTH 320 0
DWIDTH 8 0
BBX 10 19 0 0
BITMAP
01C0
07C0
07C0
0F00
0E00
3FC0
3FC0
3FC0
1E00
1C00
1C00
1C00
3C00
3800
3800
3800
FE00
FE00
FE00
ENDCHAR

STARTCHAR g
ENCODING 103
SWIDTH 660 0
DWIDTH 17 0
BBX 17 19 1 -5
BITMAP
03F380
0FFF80
1FFF80
3E1E00
380E00
780E00
700C00
701C00
701C00
701C00
787C00
3FF800
3FF800
0FB800
003800
F0F000
FFF000
7FE000
3F8000
ENDCHAR

STARTCHAR h
ENCODING 104
SWIDTH 640 0
DWIDTH 15 0
BBX 15 18 0 0
BITMAP
1F00
1F00
1F00
0600
0E78
0FFC
0FFE
0F1E
1E0E
1C1C
1C1C
1C1C
1C1C
3838
3838
FC7C
FC7C
FC7C
ENDCHAR

STARTCHAR i
ENCODING 105
SWIDTH 300 0
DWIDTH 8 0
BBX 8 18 0 0
BITMAP
07
07
07
00
3E
3E
3E
0E
1C
1C
1C
1C
38
38
38
FE
FE
FE
ENDCHAR

STARTCHAR j
ENCODING 106
SWIDTH 280 0
DWIDTH 7 0
BBX 9 23 -1 -5
BITMAP
0380
0380
0380
0000
1F00
1F00
1F00
0700
0700
0600
0E00
0E00
0E00
0E00
0C00
1C00
1C00
1C00
1C00
3800
F800
F000
E000
ENDCHAR

STARTCHAR k
ENCODING 107
SWIDTH 600 0
DWIDTH 15 0
BBX 15 18 0 0
BITMAP
1F00
1F00
1F00
0E00
0E3E
0E3E
1C3E
1C78
1CE0
1DC0
1F80
3F80
3BC0
39E0
3070
F8FC
F8FC
F8FC
ENDCHAR

STARTCHAR l
ENCODING 108
SWIDTH 300 0
DWIDTH 8 0
BBX 8 18 0 0
BITMAP
1F
1F
1F
0E
0E
0E
0E
1C
1C
1C
1C
1C
38
38
38
FE
FE
FE
ENDCHAR

STARTCHAR m
ENCODING 109
SWIDTH 980 0
DWIDTH 24 0
BBX 23 14 0 0
BITMAP
3EF8F8
3FFDFC
3FFFFE
0F1F1E
0E0E0E
1C1C1C
1C1C1C
1C1C1C
1C1C1C
1C1C3C
383838
FEFEFE
FEFEFE
FEFEFE
ENDCHAR

STARTCHAR n
ENCODING 110
SWIDTH 640 0
DWIDTH 16 0
BBX 15 14 0 0
BITMAP
3CF8
3FFC
3FFE
0F1E
0E0E
0E0E
1C1C
1C1C
1C1C
1C1C
3838
FC7E
FC7E
FC7E
ENDCHAR

STARTCHAR o
ENCODING 111
SWIDTH 580 0
DWIDTH 15 0
BBX 14 14 1 0
BITMAP
07E0
1FF8
3FF8
7C3C
701C
F01C
E01C
E01C
E03C
E038
F0F0
7FF0
7FE0
1F80
ENDCHAR

STARTCHAR p
ENCODING 112
SWIDTH 660 0
DWIDTH 17 0
BBX 18 19 -1 -5
BITMAP
1F7E00
1FFF80
1FFF80
07C3C0
0701C0
0F01C0
0E01C0
0E01C0
0E03C0
0E0380
1F0F00
1FFF00
1FFE00
1DF800
380000
380000
FE0000
FE0000
FE0000
ENDCHAR

STARTCHAR q
ENCODING 113
SWIDTH 660 0
DWIDTH 17 0
BBX 17 19 1 -5
BITMAP
07E780
1FFF80
3FFF80
7C3E00
701E00
F01C00
E01C00
E01C00
E03C00
E03800
F0F800
7FF800
7FF800
1F3000
007000
007000
01FC00
01FC00
01FC00
ENDCHAR

STARTCHAR r
ENCODING 114
SWIDTH 380 0
DWIDTH 10 0
BBX 11 14 0 0
BITMAP
39E0
3FE0
3FE0
0F00
0E00
1C00
1C00
1C00
1C00
3800
3800
FE00
FE00
FE00
ENDCHAR

STARTCHAR s
ENCODING 115
SWIDTH 460 0
DWIDTH 10 0
BBX 11 14 0 0
BITMAP
0EE0
1FE0
3FE0
38E0
3800
3C00
3F80
0FC0
03C0
01C0
E3C0
FF80
FF00
EE00
ENDCHAR

STARTCHAR t
ENCODING 116
SWIDTH 340 0
DWIDTH 8 0
BBX 7 18 1 0
BITMAP
1C
1C
1C
18
7E
7E
7E
38
38
70
70
70
70
70
E0
F8
F8
F8
ENDCHAR

STARTCHAR u
ENCODING 117
SWIDTH 640 0
DWIDTH 15 0
BBX 13 14 1 0
BITMAP
F8F8
F8F8
F8F8
3838
7070
7070
7070
7070
E0E0
E0E0
F1E0
FFF8
7FF8
1E78
ENDCHAR

STARTCHAR v
ENCODING 118
SWIDTH 600 0
DWIDTH 14 0
BBX 14 14 1 0
BITMAP
FCFC
FCFC
FCFC
3870
38F0
38E0
39C0
39C0
3B80
3B80
1F00
1E00
1E00
1C00
ENDCHAR

STARTCHAR w
ENCODING 119
SWIDTH 880 0
DWIDTH 19 0
BBX 20 14 1 0
BITMAP
FC73F0
FC73F0
FCF3F0
38F1C0
38F3C0
39F380
39F700
3BF700
1B3600
1F3E00
1E3C00
1E3C00
1C3800
1C3800
ENDCHAR

STARTCHAR x
ENCODING 120
SWIDTH 620 0
DWIDTH 15 0
BBX 16 14 0 0
BITMAP
3F3F
3F3F
3F3F
0E1C
0738
07E0
03C0
03C0
07E0
0E70
3870
FCFC
FCFC
FCFC
ENDCHAR

STARTCHAR y
ENCODING 121
SWIDTH 600 0
DWIDTH 15 0
BBX 15 19 1 -5
BITMAP
FCFE
FCFE
FCFE
7038
3870
3870
38E0
1DC0
1D80
1F80
1F00
0F00
0E00
0E00
1C00
1C00
7E00
7E00
7E00
ENDCHAR

STARTCHAR z
ENCODING 122
SWIDTH 460 0
DWIDTH 12 0
BBX 13 14 0 0
BITMAP
3FF8
3FF8
3FF8
38F0
39E0
0380
0780
0F00
1E00
3C70
F0E0
FFE0
FFE0
FFE0
ENDCHAR

STARTCHAR braceleft
ENCODING 123
SWIDTH 320 0
DWIDTH 8 0
BBX 8 21 0 -3
BITMAP
07
0E
0E
0C
1C
1C
1C
18
18
70
E0
70
30
70
70
70
60
E0
E0
E0
70
ENDCHAR

STARTCHAR bar
ENCODING 124
SWIDTH 660 0
DWIDTH 17 0
BBX 5 18 6 0
BITMAP
18
18
18
18
30
30
30
30
30
60
60
60
60
60
C0
C0
C0
C0
ENDCHAR

STARTCHAR braceright
ENCODING 125
SWIDTH 320 0
DWIDTH 8 0
BBX 8 21 -1 -3
BITMAP
0E
07
07
07
06
06
0E
0E
0E
06
03
0E
1C
1C
1C
38
38
38
38
70
E0
ENDCHAR

STARTCHAR asciitilde
ENCODING 126
SWIDTH 660 0
DWIDTH 17 0
BBX 15 5 2 6
BITMAP
0E0C
1F9E
7FF8
F3F0
60E0
ENDCHAR

STARTCHAR space
ENCODING 160
SWIDTH 300 0
DWIDTH 7 0
BBX 1 1 0 0
BITMAP
00
ENDCHAR

STARTCHAR exclamdown
ENCODING 161
SWIDTH 200 0
DWIDTH 6 0
BBX 6 19 -1 -5
BITMAP
1C
1C
1C
00
00
38
38
38
38
38
70
70
70
70
70
E0
E0
E0
E0
ENDCHAR

STARTCHAR cent
ENCODING 162
SWIDTH 580 0
DWIDTH 15 0
BBX 12 17 2 0
BITMAP
0380
0380
0300
0FB0
3FF0
7FF0
7870
F000
E000
E000
F0E0
7FE0
7FC0
0F00
1C00
1C00
1C00
ENDCHAR

STARTCHAR sterling
ENCODING 163
SWIDTH 680 0
DWIDTH 17 0
BBX 14 18 2 0
BITMAP
03DC
0FFC
1FFC
1C38
3838
3800
1C00
1C00
7FC0
7FC0
7FC0
0E00
0E1C
1C3C
1C38
FFF0
FFF0
FFC0
ENDCHAR

STARTCHAR EuroSign
ENCODING 164
SWIDTH 594 0
DWIDTH 15 0
BBX 17 15 0 0
BITMAP
00FD80
07FF80
0E0780
180300
FFFB00
FFF800
300000
300000
FFF000
FFF000
300000
380600
1C1E00
1FFC00
07F000
ENDCHAR

STARTCHAR yen
ENCODING 165
SWIDTH 720 0
DWIDTH 18 0
BBX 16 18 2 0
BITMAP
7E3F
7E3F
7E3F
381C
1C38
1C70
0EE0
0EC0
7FF8
7FF8
0700
FFF0
FFF0
0E00
0E00
7F80
7F80
7F80
ENDCHAR

STARTCHAR Scaron
ENCODING 166
SWIDTH 520 0
DWIDTH 13 0
BBX 14 23 0 0
BITMAP
1C70
0EE0
03C0
0180
0000
03EC
0FFC
1E78
3C38
3838
3C00
3E00
1F00
0FC0
07E0
01F0
00F0
7070
7070
70F0
F9E0
FFC0
DF00
ENDCHAR

STARTCHAR section
ENCODING 167
SWIDTH 460 0
DWIDTH 11 0
BBX 11 22 0 -4
BITMAP
0380
0FC0
1CE0
18E0
38E0
3C00
1F00
0F80
1FC0
3BC0
71C0
71C0
7B80
3F00
1F00
0780
0380
E380
E380
E700
7E00
3800
ENDCHAR

STARTCHAR scaron
ENCODING 168
SWIDTH 460 0
DWIDTH 10 0
BBX 11 19 0 0
BITMAP
38E0
1DC0
0780
0300
0000
0EE0
1FE0
3FE0
38E0
3800
3C00
3F80
0FC0
03C0
01C0
E3C0
FF80
FF00
EE00
ENDCHAR

STARTCHAR copyright
ENCODING 169
SWIDTH 820 0
DWIDTH 21 0
BBX 19 18 1 0
BITMAP
00FC00
03FF00
0F0380
1C00C0
3878C0
31FC60
638C60
630C60
C60060
C60060
C600C0
C718C0
C3F180
61E380
600700
381E00
1FF800
07E000
ENDCHAR

STARTCHAR ordfeminine
ENCODING 170
SWIDTH 420 0
DWIDTH 11 0
BBX 10 11 1 7
BITMAP
1EC0
7FC0
6380
C180
C300
E700
7F80
3D80
0000
FF00
FF00
ENDCHAR

STARTCHAR guillemotleft
ENCODING 171
SWIDTH 360 0
DWIDTH 9 0
BBX 8 8 0 3
BITMAP
11
33
66
CC
CC
CC
66
22
ENDCHAR

STARTCHAR logicalnot
ENCODING 172
SWIDTH 660 0
DWIDTH 17 0
BBX 14 8 2 3
BITMAP
FFFC
FFFC
000C
0018
0018
0018
0030
0030
ENDCHAR

STARTCHAR hyphen
ENCODING 173
SWIDTH 320 0
DWIDTH 8 0
BBX 6 3 0 6
BITMAP
FC
FC
FC
ENDCHAR

STARTCHAR registered
ENCODING 174
SWIDTH 820 0
DWIDTH 20 0
BBX 19 18 1 0
BITMAP
00FC00
03FF00
0F0380
1C00C0
39F8C0
31FC60
610C60
630C60
C3F860
C3E060
C260C0
C630C0
C61980
661B80
600700
381E00
1FF800
07E000
ENDCHAR

STARTCHAR macron
ENCODING 175
SWIDTH 520 0
DWIDTH 13 0
BBX 9 2 3 15
BITMAP
FF80
FF80
ENDCHAR

STARTCHAR degree
ENCODING 176
SWIDTH 400 0
DWIDTH 10 0
BBX 8 7 2 11
BITMAP
3E
67
C3
C3
C3
E6
7C
ENDCHAR

STARTCHAR plusminus
ENCODING 177
SWIDTH 660 0
DWIDTH 16 0
BBX 13 13 1 1
BITMAP
0180
0180
0180
0300
7FF8
7FF8
0300
0600
0600
0600
0000
FFF0
FFF0
ENDCHAR

STARTCHAR twosuperior
ENCODING 178
SWIDTH 348 0
DWIDTH 8 0
BBX 9 11 0 7
BITMAP
1E00
3F00
7380
0380
0700
0E00
1C00
3800
7180
FF00
FF00
ENDCHAR

STARTCHAR threesuperior
ENCODING 179
SWIDTH 348 0
DWIDTH 8 0
BBX 9 11 0 7
BITMAP
0F00
3F80
7180
0380
1F00
1E00
0300
0300
C700
FE00
7C00
ENDCHAR

STARTCHAR Zcaron
ENCODING 180
SWIDTH 560 0
DWIDTH 14 0
BBX 15 23 0 0
BITMAP
0E38
0770
01E0
00C0
0000
1FFE
1FFE
1FFE
1C1E
383C
3878
00F0
01E0
03C0
0780
0F00
1E00
3C38
7838
F070
FFF0
FFF0
FFF0
ENDCHAR

STARTCHAR mu
ENCODING 181
SWIDTH 640 0
DWIDTH 15 0
BBX 15 19 -1 -5
BITMAP
3E3E
3E3E
3E3E
0E0E
1C1C
1C1C
1C1C
1C1C
3838
3838
3C78
3FFE
7FFE
779E
7000
7000
E000
E000
E000
ENDCHAR

STARTCHAR paragraph
ENCODING 182
SWIDTH 540 0
DWIDTH 14 0
BBX 14 21 1 -3
BITMAP
0FFC
3FFC
7FFC
7F30
FE30
FE30
FE30
7E30
3C60
0C60
0C60
0C60
18C0
18C0
18C0
18C0
18C0
18C0
3180
3180
3180
ENDCHAR

STARTCHAR periodcentered
ENCODING 183
SWIDTH 300 0
DWIDTH 7 0
BBX 3 3 2 6
BITMAP
E0
E0
E0
ENDCHAR

STARTCHAR zcaron
ENCODING 184
SWIDTH 460 0
DWIDTH 12 0
BBX 13 19 0 0
BITMAP
1C70
0EE0
03C0
0180
0000
3FF8
3FF8
3FF8
38F0
39E0
0380
0780
0F00
1E00
3C70
F0E0
FFE0
FFE0
FFE0
ENDCHAR

STARTCHAR onesuperior
ENCODING 185
SWIDTH 348 0
DWIDTH 8 0
BBX 6 11 1 7
BITMAP
3C
3C
0C
1C
18
18
38
30
30
FC
FC
ENDCHAR

STARTCHAR ordmasculine
ENCODING 186
SWIDTH 360 0
DWIDTH 9 0
BBX 10 11 0 7
BITMAP
0F00
3F80
31C0
60C0
60C0
7180
3F80
1F00
0000
FF00
FF00
ENDCHAR

STARTCHAR guillemotright
ENCODING 187
SWIDTH 360 0
DWIDTH 9 0
BBX 8 8 0 3
BITMAP
44
66
33
33
33
66
CC
88
ENDCHAR

STARTCHAR Ligature_OE
ENCODING 188
SWIDTH 1100 0
DWIDTH 28 0
BBX 28 18 1 0
BITMAP
00FC7FF0
07FF7FF0
0FFF7FE0
3F07F0E0
3C01F0E0
7801F000
7000E000
F000FF00
E000FF00
E000FF00
E001E000
E001E000
F003C1C0
7007C1C0
7C1FC3C0
3FFDFF80
1FFBFF80
07E3FF80
ENDCHAR

STARTCHAR Ligature_oe
ENCODING 189
SWIDTH 1040 0
DWIDTH 26 0
BBX 25 14 1 0
BITMAP
07E0FC00
1FFBFF00
3FFFFF00
7C3F8780
701E0380
F01FFF80
E01FFF80
E01FFF80
E03C0000
E03C0700
F0FE1E00
7FFFFE00
7FEFFC00
1F83F000
ENDCHAR

STARTCHAR Ydiaeresis
ENCODING 190
SWIDTH 680 0
DWIDTH 15 0
BBX 15 22 2 0
BITMAP
0738
0738
0738
0000
FC7E
FC7E
FC7E
7838
3870
38E0
1DE0
1DC0
1F80
0F00
0F00
0E00
0E00
1C00
1C00
FF00
FF00
FF00
ENDCHAR

STARTCHAR questiondown
ENCODING 191
SWIDTH 540 0
DWIDTH 13 0
BBX 12 19 0 -5
BITMAP
01C0
01C0
01C0
0000
0000
0380
0380
0380
0780
0F00
3C00
7800
7000
E070
E070
F0E0
7FC0
7FC0
1F00
ENDCHAR

STARTCHAR Agrave
ENCODING 192
SWIDTH 780 0
DWIDTH 17 0
BBX 18 24 -1 0
BITMAP
008000
01E000
00F800
003C00
000800
000000
00F800
00F800
00F800
003C00
007C00
00FC00
00EC00
01CE00
03CE00
038E00
07FE00
0FFF00
0FFF00
1E0700
3C0700
FE1FC0
FE1FC0
FE1FC0
ENDCHAR

STARTCHAR Aacute
ENCODING 193
SWIDTH 780 0
DWIDTH 17 0
BBX 18 24 -1 0
BITMAP
000200
000F00
003E00
007800
002000
000000
00F800
00F800
00F800
003C00
007C00
00FC00
00EC00
01CE00
03CE00
038E00
07FE00
0FFF00
0FFF00
1E0700
3C0700
FE1FC0
FE1FC0
FE1FC0
ENDCHAR

STARTCHAR Acircumflex
ENCODING 194
SWIDTH 780 0
DWIDTH 17 0
BBX 18 23 -1 0
BITMAP
003000
007800
01DC00
038E00
000000
00F800
00F800
00F800
003C00
007C00
00FC00
00EC00
01CE00
03CE00
038E00
07FE00
0FFF00
0FFF00
1E0700
3C0700
FE1FC0
FE1FC0
FE1FC0
ENDCHAR

STARTCHAR Atilde
ENCODING 195
SWIDTH 780 0
DWIDTH 17 0
BBX 18 23 -1 0
BITMAP
00E600
01FE00
019C00
000000
000000
00F800
00F800
00F800
003C00
007C00
00FC00
00EC00
01CE00
03CE00
038E00
07FE00
0FFF00
0FFF00
1E0700
3C0700
FE1FC0
FE1FC0
FE1FC0
ENDCHAR

STARTCHAR Adieresis
ENCODING 196
SWIDTH 780 0
DWIDTH 17 0
BBX 18 22 -1 0
BITMAP
01CE00
01CE00
01CE00
000000
00F800
00F800
00F800
003C00
007C00
00FC00
00EC00
01CE00
03CE00
038E00
07FE00
0FFF00
0FFF00
1E0700
3C0700
FE1FC0
FE1FC0
FE1FC0
ENDCHAR

STARTCHAR Aring
ENCODING 197
SWIDTH 780 0
DWIDTH 17 0
BBX 18 24 -1 0
BITMAP
003800
006C00
004400
006C00
003800
000000
00F800
00F800
00F800
003C00
007C00
00FC00
00EC00
01CE00
03CE00
038E00
07FE00
0FFF00
0FFF00
1E0700
3C0700
FE1FC0
FE1FC0
FE1FC0
ENDCHAR

STARTCHAR AE
ENCODING 198
SWIDTH 980 0
DWIDTH 23 0
BBX 25 18 -2 0
BITMAP
000FFF80
000FFF80
001FFF00
001F8700
003B8700
00738000
00E70000
00E7F800
01C7F800
0387F800
03FF0000
07FF0000
0FFE0E00
1E0E0E00
3C0E1E00
FE3FFC00
FE3FFC00
FE3FFC00
ENDCHAR

STARTCHAR Ccedilla
ENCODING 199
SWIDTH 760 0
DWIDTH 19 0
BBX 19 23 1 -5
BITMAP
00FCE0
07FEE0
0FFFE0
3F07E0
3C01C0
7801C0
700000
F00000
E00000
E00000
E00000
E00000
F00380
700780
7C1F00
3FFE00
1FFC00
07F000
00C000
01C000
006000
036000
01C000
ENDCHAR

STARTCHAR Egrave
ENCODING 200
SWIDTH 580 0
DWIDTH 15 0
BBX 15 24 0 0
BITMAP
0200
0780
03E0
00F0
0020
0000
3FFE
3FFE
3FFC
0E1C
0E1C
0E00
1C00
1FE0
1FE0
1FE0
1C00
3C00
3838
3838
3878
FFF0
FFF0
FFF0
ENDCHAR

STARTCHAR Eacute
ENCODING 201
SWIDTH 580 0
DWIDTH 15 0
BBX 15 24 0 0
BITMAP
0010
0078
01F0
03C0
0100
0000
3FFE
3FFE
3FFC
0E1C
0E1C
0E00
1C00
1FE0
1FE0
1FE0
1C00
3C00
3838
3838
3878
FFF0
FFF0
FFF0
ENDCHAR

STARTCHAR Ecircumflex
ENCODING 202
SWIDTH 580 0
DWIDTH 15 0
BBX 15 23 0 0
BITMAP
0060
00F0
03B8
071C
0000
3FFE
3FFE
3FFC
0E1C
0E1C
0E00
1C00
1FE0
1FE0
1FE0
1C00
3C00
3838
3838
3878
FFF0
FFF0
FFF0
ENDCHAR

STARTCHAR Edieresis
ENCODING 203
SWIDTH 580 0
DWIDTH 15 0
BBX 15 22 0 0
BITMAP
0738
0738
0738
0000
3FFE
3FFE
3FFC
0E1C
0E1C
0E00
1C00
1FE0
1FE0
1FE0
1C00
3C00
3838
3838
3878
FFF0
FFF0
FFF0
ENDCHAR

STARTCHAR Igrave
ENCODING 204
SWIDTH 340 0
DWIDTH 8 0
BBX 10 24 0 0
BITMAP
0800
1E00
0F80
03C0
0080
0000
1F80
1F80
1F80
0E00
0E00
0E00
1C00
1C00
1C00
1C00
1C00
3800
3800
3800
3800
FC00
FC00
FC00
ENDCHAR

STARTCHAR Iacute
ENCODING 205
SWIDTH 340 0
DWIDTH 8 0
BBX 11 24 0 0
BITMAP
0040
01E0
07C0
0F00
0400
0000
1F80
1F80
1F80
0E00
0E00
0E00
1C00
1C00
1C00
1C00
1C00
3800
3800
3800
3800
FC00
FC00
FC00
ENDCHAR

STARTCHAR Icircumflex
ENCODING 206
SWIDTH 340 0
DWIDTH 8 0
BBX 11 23 0 0
BITMAP
0300
0780
1DC0
38E0
0000
1F80
1F80
1F80
0E00
0E00
0E00
1C00
1C00
1C00
1C00
1C00
3800
3800
3800
3800
FC00
FC00
FC00
ENDCHAR

STARTCHAR Idieresis
ENCODING 207
SWIDTH 340 0
DWIDTH 8 0
BBX 10 22 0 0
BITMAP
39C0
39C0
39C0
0000
1F80
1F80
1F80
0E00
0E00
0E00
1C00
1C00
1C00
1C00
1C00
3800
3800
3800
3800
FC00
FC00
FC00
ENDCHAR

STARTCHAR Eth
ENCODING 208
SWIDTH 740 0
DWIDTH 18 0
BBX 18 18 0 0
BITMAP
3FF000
3FFE00
3FFF00
0E0F80
0E0380
0E0380
1C01C0
1C01C0
7F81C0
7F81C0
1C0380
1C0380
380700
380F00
383E00
FFFC00
FFF000
FFC000
ENDCHAR

STARTCHAR Ntilde
ENCODING 209
SWIDTH 800 0
DWIDTH 19 0
BBX 21 23 0 0
BITMAP
007300
00FF00
00CE00
000000
000000
1F03F8
1F83F8
1F83F8
07C0E0
07C0E0
0EE1C0
0EE1C0
0EF1C0
0E71C0
1C7B80
1C3B80
1C3B80
1C1F80
381F80
380F00
FE0F00
FE0700
FE0700
ENDCHAR

STARTCHAR Ograve
ENCODING 210
SWIDTH 780 0
DWIDTH 20 0
BBX 19 24 1 0
BITMAP
004000
00F000
007C00
001E00
000400
000000
00FC00
07FF00
0FFF80
3F07C0
3C01C0
7801E0
7000E0
F000E0
E000E0
E000E0
E001C0
E001C0
F003C0
700780
7C1F00
3FFE00
1FFC00
07F000
ENDCHAR

STARTCHAR Oacute
ENCODING 211
SWIDTH 780 0
DWIDTH 20 0
BBX 19 24 1 0
BITMAP
000200
000F00
003E00
007800
002000
000000
00FC00
07FF00
0FFF80
3F07C0
3C01C0
7801E0
7000E0
F000E0
E000E0
E000E0
E001C0
E001C0
F003C0
700780
7C1F00
3FFE00
1FFC00
07F000
ENDCHAR

STARTCHAR Ocircumflex
ENCODING 212
SWIDTH 780 0
DWIDTH 20 0
BBX 19 23 1 0
BITMAP
003000
007800
01DC00
038E00
000000
00FC00
07FF00
0FFF80
3F07C0
3C01C0
7801E0
7000E0
F000E0
E000E0
E000E0
E001C0
E001C0
F003C0
700780
7C1F00
3FFE00
1FFC00
07F000
ENDCHAR

STARTCHAR Otilde
ENCODING 213
SWIDTH 780 0
DWIDTH 20 0
BBX 19 23 1 0
BITMAP
00E600
01FE00
019C00
000000
000000
00FC00
07FF00
0FFF80
3F07C0
3C01C0
7801E0
7000E0
F000E0
E000E0
E000E0
E001C0
E001C0
F003C0
700780
7C1F00
3FFE00
1FFC00
07F000
ENDCHAR

STARTCHAR Odieresis
ENCODING 214
SWIDTH 780 0
DWIDTH 20 0
BBX 19 22 1 0
BITMAP
01C700
01C700
01C700
000000
00FC00
07FF00
0FFF80
3F07C0
3C01C0
7801E0
7000E0
F000E0
E000E0
E000E0
E001C0
E001C0
F003C0
700780
7C1F00
3FFE00
1FFC00
07F000
ENDCHAR

STARTCHAR multiply
ENCODING 215
SWIDTH 660 0
DWIDTH 16 0
BBX 13 12 1 2
BITMAP
6018
7038
3870
1CE0
0FC0
0780
0F00
1F80
39C0
70E0
E070
C030
ENDCHAR

STARTCHAR Oslash
ENCODING 216
SWIDTH 780 0
DWIDTH 20 0
BBX 20 20 1 -1
BITMAP
000020
00FC70
07FFE0
0FFFC0
3F03C0
3C07C0
780EE0
701CE0
F038E0
E070E0
E0E0E0
E1C1C0
E381C0
F703C0
7E0780
7C1F00
3FFE00
7FFC00
E7F000
400000
ENDCHAR

STARTCHAR Ugrave
ENCODING 217
SWIDTH 700 0
DWIDTH 18 0
BBX 17 24 2 0
BITMAP
020000
078000
03E000
00F000
002000
000000
FE3F80
FE3F80
FE3F80
380E00
380E00
701C00
701C00
701C00
701C00
701C00
E03800
E03800
E03800
E07000
F0E000
FFE000
7FC000
1F0000
ENDCHAR

STARTCHAR Uacute
ENCODING 218
SWIDTH 700 0
DWIDTH 18 0
BBX 17 24 2 0
BITMAP
000800
003C00
00F800
01E000
008000
000000
FE3F80
FE3F80
FE3F80
380E00
380E00
701C00
701C00
701C00
701C00
701C00
E03800
E03800
E03800
E07000
F0E000
FFE000
7FC000
1F0000
ENDCHAR

STARTCHAR Ucircumflex
ENCODING 219
SWIDTH 700 0
DWIDTH 18 0
BBX 17 23 2 0
BITMAP
006000
00F000
03B800
071C00
000000
FE3F80
FE3F80
FE3F80
380E00
380E00
701C00
701C00
701C00
701C00
701C00
E03800
E03800
E03800
E07000
F0E000
FFE000
7FC000
1F0000
ENDCHAR

STARTCHAR Udieresis
ENCODING 220
SWIDTH 700 0
DWIDTH 18 0
BBX 17 22 2 0
BITMAP
0E3800
0E3800
0E3800
000000
FE3F80
FE3F80
FE3F80
380E00
380E00
701C00
701C00
701C00
701C00
701C00
E03800
E03800
E03800
E07000
F0E000
FFE000
7FC000
1F0000
ENDCHAR

STARTCHAR Yacute
ENCODING 221
SWIDTH 680 0
DWIDTH 15 0
BBX 15 24 2 0
BITMAP
0020
00F0
03E0
0780
0200
0000
FC7E
FC7E
FC7E
7838
3870
38E0
39E0
1DC0
1F80
1F00
1F00
0E00
0E00
1C00
1C00
FF00
FF00
FF00
ENDCHAR

STARTCHAR Thorn
ENCODING 222
SWIDTH 600 0
DWIDTH 15 0
BBX 15 18 0 0
BITMAP
3F80
3F80
0E00
0FF0
0FFC
0FFC
1C1E
1C0E
1C0E
1C0E
1C1C
383C
3FF8
3FF0
3FC0
3800
FE00
FE00
ENDCHAR

STARTCHAR germandbls
ENCODING 223
SWIDTH 600 0
DWIDTH 15 0
BBX 14 18 0 0
BITMAP
01E0
07F0
0FF8
0E38
1C38
1C38
1C70
1CE0
18F0
18F8
387C
381C
381C
381C
3838
F3F8
F3F0
F3C0
ENDCHAR

STARTCHAR agrave
ENCODING 224
SWIDTH 660 0
DWIDTH 17 0
BBX 17 20 1 0
BITMAP
020000
078000
03E000
00F000
002000
000000
07E780
1FFF80
3FFF80
7C3C00
701C00
F01C00
E01C00
E03800
E03800
E03800
F0F800
7FFE00
7FFE00
1F9E00
ENDCHAR

STARTCHAR aacute
ENCODING 225
SWIDTH 660 0
DWIDTH 17 0
BBX 17 20 1 0
BITMAP
001000
007800
01F000
03C000
010000
000000
07E780
1FFF80
3FFF80
7C3C00
701C00
F01C00
E01C00
E03800
E03800
E03800
F0F800
7FFE00
7FFE00
1F9E00
ENDCHAR

STARTCHAR acircumflex
ENCODING 226
SWIDTH 660 0
DWIDTH 17 0
BBX 17 19 1 0
BITMAP
00C000
01E000
077000
0E3800
000000
07E780
1FFF80
3FFF80
7C3C00
701C00
F01C00
E01C00
E03800
E03800
E03800
F0F800
7FFE00
7FFE00
1F9E00
ENDCHAR

STARTCHAR atilde
ENCODING 227
SWIDTH 660 0
DWIDTH 17 0
BBX 17 19 1 0
BITMAP
039800
07F800
067000
000000
000000
07E780
1FFF80
3FFF80
7C3C00
701C00
F01C00
E01C00
E03800
E03800
E03800
F0F800
7FFE00
7FFE00
1F9E00
ENDCHAR

STARTCHAR adieresis
ENCODING 228
SWIDTH 660 0
DWIDTH 17 0
BBX 17 18 1 0
BITMAP
073800
073800
073800
000000
07E780
1FFF80
3FFF80
7C3C00
701C00
F01C00
E01C00
E03800
E03800
E03800
F0F800
7FFE00
7FFE00
1F9E00
ENDCHAR

STARTCHAR aring
ENCODING 229
SWIDTH 660 0
DWIDTH 17 0
BBX 17 20 1 0
BITMAP
01C000
036000
022000
036000
01C000
000000
07E780
1FFF80
3FFF80
7C3C00
701C00
F01C00
E01C00
E03800
E03800
E03800
F0F800
7FFE00
7FFE00
1F9E00
ENDCHAR

STARTCHAR ae
ENCODING 230
SWIDTH 1040 0
DWIDTH 26 0
BBX 25 14 1 0
BITMAP
07CE7C00
1FEEFF00
3FFFFF00
7C3F0780
701E0380
F01FFF80
E01FFF80
E01FFF80
E03C0000
E03C0700
F0FE1E00
7FFFFE00
7FBBFC00
1F39F000
ENDCHAR

STARTCHAR ccedilla
ENCODING 231
SWIDTH 580 0
DWIDTH 14 0
BBX 14 19 1 -5
BITMAP
07DC
1FFC
3FFC
7C3C
701C
F000
E000
E000
E000
E038
F0F0
7FF0
7FE0
1F80
0600
0E00
0300
1B00
0E00
ENDCHAR

STARTCHAR egrave
ENCODING 232
SWIDTH 580 0
DWIDTH 15 0
BBX 14 20 1 0
BITMAP
0400
0F00
07C0
01E0
0040
0000
07E0
1FF8
3FF8
7C3C
701C
FFFC
FFFC
FFFC
E000
E038
F0F0
7FF0
7FE0
1F80
ENDCHAR

STARTCHAR eacute
ENCODING 233
SWIDTH 580 0
DWIDTH 15 0
BBX 14 20 1 0
BITMAP
0020
00F0
03E0
0780
0200
0000
07E0
1FF8
3FF8
7C3C
701C
FFFC
FFFC
FFFC
E000
E038
F0F0
7FF0
7FE0
1F80
ENDCHAR

STARTCHAR ecircumflex
ENCODING 234
SWIDTH 580 0
DWIDTH 15 0
BBX 14 19 1 0
BITMAP
00C0
01E0
0770
0E38
0000
07E0
1FF8
3FF8
7C3C
701C
FFFC
FFFC
FFFC
E000
E038
F0F0
7FF0
7FE0
1F80
ENDCHAR

STARTCHAR edieresis
ENCODING 235
SWIDTH 580 0
DWIDTH 15 0
BBX 14 18 1 0
BITMAP
0E38
0E38
0E38
0000
07E0
1FF8
3FF8
7C3C
701C
FFFC
FFFC
FFFC
E000
E038
F0F0
7FF0
7FE0
1F80
ENDCHAR

STARTCHAR igrave
ENCODING 236
SWIDTH 300 0
DWIDTH 8 0
BBX 8 20 0 0
BITMAP
20
78
3E
0F
02
00
3E
3E
3E
0E
0E
1C
1C
1C
1C
1C
38
FE
FE
FE
ENDCHAR

STARTCHAR iacute
ENCODING 237
SWIDTH 300 0
DWIDTH 8 0
BBX 9 20 0 0
BITMAP
0100
0780
1F00
3C00
1000
0000
3E00
3E00
3E00
0E00
0E00
1C00
1C00
1C00
1C00
1C00
3800
FE00
FE00
FE00
ENDCHAR

STARTCHAR icircumflex
ENCODING 238
SWIDTH 300 0
DWIDTH 8 0
BBX 10 19 0 0
BITMAP
0600
0F00
3B80
71C0
0000
3E00
3E00
3E00
0E00
0E00
1C00
1C00
1C00
1C00
1C00
3800
FE00
FE00
FE00
ENDCHAR

STARTCHAR idieresis
ENCODING 239
SWIDTH 300 0
DWIDTH 8 0
BBX 9 18 0 0
BITMAP
7380
7380
7380
0000
3E00
3E00
3E00
0E00
0E00
1C00
1C00
1C00
1C00
1C00
3800
FE00
FE00
FE00
ENDCHAR

STARTCHAR eth
ENCODING 240
SWIDTH 580 0
DWIDTH 15 0
BBX 14 19 1 0
BITMAP
1E78
07E0
1F80
79C0
00E0
07F0
1FF8
3FF8
7C3C
701C
F01C
E01C
E01C
E03C
E038
F0F0
7FF0
7FE0
1F80
ENDCHAR

STARTCHAR ntilde
ENCODING 241
SWIDTH 640 0
DWIDTH 16 0
BBX 15 19 0 0
BITMAP
01CC
03FC
0338
0000
0000
3CF8
3FFC
3FFE
0F1E
0E0E
0E0E
1C1C
1C1C
1C1C
1C1C
3838
FC7E
FC7E
FC7E
ENDCHAR

STARTCHAR ograve
ENCODING 242
SWIDTH 580 0
DWIDTH 15 0
BBX 14 20 1 0
BITMAP
0400
0F00
07C0
01E0
0040
0000
07E0
1FF8
3FF8
7C3C
701C
F01C
E01C
E01C
E03C
E038
F0F0
7FF0
7FE0
1F80
ENDCHAR

STARTCHAR oacute
ENCODING 243
SWIDTH 580 0
DWIDTH 15 0
BBX 14 20 1 0
BITMAP
0020
00F0
03E0
0780
0200
0000
07E0
1FF8
3FF8
7C3C
701C
F01C
E01C
E01C
E03C
E038
F0F0
7FF0
7FE0
1F80
ENDCHAR

STARTCHAR ocircumflex
ENCODING 244
SWIDTH 580 0
DWIDTH 15 0
BBX 14 19 1 0
BITMAP
00C0
01E0
0770
0E38
0000
07E0
1FF8
3FF8
7C3C
701C
F01C
E01C
E01C
E03C
E038
F0F0
7FF0
7FE0
1F80
ENDCHAR

STARTCHAR otilde
ENCODING 245
SWIDTH 580 0
DWIDTH 15 0
BBX 14 19 1 0
BITMAP
0730
0FF0
0CE0
0000
0000
07E0
1FF8
3FF8
7C3C
701C
F01C
E01C
E01C
E03C
E038
F0F0
7FF0
7FE0
1F80
ENDCHAR

STARTCHAR odieresis
ENCODING 246
SWIDTH 580 0
DWIDTH 15 0
BBX 14 18 1 0
BITMAP
0E70
0E70
0E70
0000
07E0
1FF8
3FF8
7C3C
701C
F01C
E01C
E01C
E03C
E038
F0F0
7FF0
7FE0
1F80
ENDCHAR

STARTCHAR divide
ENCODING 247
SWIDTH 660 0
DWIDTH 16 0
BBX 12 12 1 2
BITMAP
0300
0300
0300
0000
0000
FFF0
FFF0
0000
0000
0C00
0C00
0C00
ENDCHAR

STARTCHAR oslash
ENCODING 248
SWIDTH 600 0
DWIDTH 15 0
BBX 16 16 0 -1
BITMAP
0002
03E7
0FFE
1FFC
3E3E
387E
78EE
71CE
738E
771E
7E1C
7C78
3FF8
7FF0
E7C0
4000
ENDCHAR

STARTCHAR ugrave
ENCODING 249
SWIDTH 640 0
DWIDTH 15 0
BBX 13 20 1 0
BITMAP
0800
1E00
0F80
03C0
0080
0000
F8F8
F8F8
F8F8
3838
7070
7070
7070
7070
E0E0
E0E0
F1E0
FFF8
7FF8
1E78
ENDCHAR

STARTCHAR uacute
ENCODING 250
SWIDTH 640 0
DWIDTH 15 0
BBX 13 20 1 0
BITMAP
0020
00F0
03E0
0780
0200
0000
F8F8
F8F8
F8F8
3838
7070
7070
7070
7070
E0E0
E0E0
F1E0
FFF8
7FF8
1E78
ENDCHAR

STARTCHAR ucircumflex
ENCODING 251
SWIDTH 640 0
DWIDTH 15 0
BBX 13 19 1 0
BITMAP
0180
03C0
0EE0
1C70
0000
F8F8
F8F8
F8F8
3838
7070
7070
7070
7070
E0E0
E0E0
F1E0
FFF8
7FF8
1E78
ENDCHAR

STARTCHAR udieresis
ENCODING 252
SWIDTH 640 0
DWIDTH 15 0
BBX 13 18 1 0
BITMAP
1CE0
1CE0
1CE0
0000
F8F8
F8F8
F8F8
3838
7070
7070
7070
7070
E0E0
E0E0
F1E0
FFF8
7FF8
1E78
ENDCHAR

STARTCHAR yacute
ENCODING 253
SWIDTH 600 0
DWIDTH 15 0
BBX 15 24 1 -4
BITMAP
0010
0078
01F0
03C0
0100
0000
FCFE
FCFE
FCFE
7038
3870
3870
38E0
1DC0
1D80
1F80
1F00
0F00
0E00
1E00
1C00
7E00
7E00
7E00
ENDCHAR

STARTCHAR thorn
ENCODING 254
SWIDTH 660 0
DWIDTH 17 0
BBX 18 23 -1 -5
BITMAP
0F8000
0F8000
0F8000
030000
037E00
07FF80
07FF80
07C3C0
0701C0
0F01C0
0E01C0
0E01C0
0E03C0
0E0380
1F0F00
1FFF00
1FFE00
1DF800
380000
380000
FE0000
FE0000
FE0000
ENDCHAR

STARTCHAR ydieresis
ENCODING 255
SWIDTH 600 0
DWIDTH 15 0
BBX 15 22 1 -4
BITMAP
0E70
0E70
0E70
0000
FCFE
FCFE
FCFE
3878
3870
38E0
38C0
1DC0
1D80
1F00
1F00
0E00
0C00
1C00
1C00
7E00
7E00
7E00
ENDCHAR
ENDFONT
